<svg width="72" height="72" viewBox="0 0 72 72" fill="none" xmlns="http://www.w3.org/2000/svg">
<rect width="72" height="72" rx="8" fill="white"/>
<path d="M35.9068 46.1473C35.9068 50.1756 34.5376 53.2081 31.7993 55.2449C29.0609 57.2817 25.1684 58.3001 20.1217 58.3001H6V14H19.3409C21.1967 14 23.0185 14.1584 24.8063 14.4752C26.5942 14.7695 28.1896 15.3352 29.5928 16.1726C31.0185 17.0099 32.1727 18.1867 33.0553 19.703C33.9379 21.1966 34.3792 23.1429 34.3792 25.5418C34.3792 27.7822 33.8021 29.8303 32.6479 31.6861C31.5164 33.5418 29.7964 34.877 27.4881 35.6918C30.3169 36.5744 32.4216 37.8077 33.8021 39.3919C35.2052 40.9761 35.9068 43.2279 35.9068 46.1473ZM27.4202 26.4583C27.4202 25.1684 27.1712 24.116 26.6734 23.3013C26.1981 22.4866 25.5758 21.8643 24.8063 21.4343C24.0369 20.9816 23.1769 20.6874 22.2264 20.5517C21.2759 20.4159 20.3141 20.348 19.3409 20.348H13.0269V32.5687H19.3409C20.3141 32.5687 21.2759 32.5008 22.2264 32.365C23.1769 32.2292 24.0369 31.9463 24.8063 31.5163C25.5758 31.0637 26.1981 30.4301 26.6734 29.6153C27.1712 28.8006 27.4202 27.7483 27.4202 26.4583ZM28.9478 45.4344C28.9478 43.2165 28.167 41.5758 26.6055 40.5121C25.0666 39.4485 22.9053 38.9167 20.1217 38.9167H13.0269V51.986H20.1217C22.9053 51.986 25.0666 51.4542 26.6055 50.3906C28.167 49.3043 28.9478 47.6522 28.9478 45.4344Z" fill="#1A56DB"/>
<path d="M66.8135 26.662C66.8135 30.9393 65.4783 34.1189 62.8078 36.201C60.1374 38.283 56.392 39.324 51.5716 39.324H41.5574V58.3001H36.9067V14H51.5037C56.3693 14 60.1374 15.0637 62.8078 17.191C65.4783 19.2956 66.8135 22.4527 66.8135 26.662ZM62.1629 26.662C62.1629 23.6068 61.201 21.4003 59.2774 20.0425C57.3538 18.662 54.7852 17.9717 51.5716 17.9717H41.5574V35.3523H51.5716C54.7852 35.3523 57.3538 34.6734 59.2774 33.3155C61.201 31.935 62.1629 29.7172 62.1629 26.662Z" fill="#233876"/>
</svg>
