<svg width="150" height="32" viewBox="0 0 150 32" fill="none" xmlns="http://www.w3.org/2000/svg">
<path d="M20.3464 22.5357C20.3464 25.2763 19.4149 27.3394 17.552 28.7251C15.689 30.1108 13.0408 30.8036 9.60739 30.8036H0V0.665039H9.07621C10.3387 0.665039 11.5781 0.772814 12.7945 0.988365C14.0108 1.18852 15.0962 1.57343 16.0508 2.1431C17.0208 2.71277 17.806 3.51338 18.4065 4.54495C19.0069 5.56111 19.3072 6.88521 19.3072 8.51723C19.3072 10.0415 18.9145 11.4349 18.1293 12.6974C17.3595 13.9599 16.1894 14.8683 14.6189 15.4225C16.5435 16.023 17.9754 16.8621 18.9146 17.9399C19.8691 19.0176 20.3464 20.5496 20.3464 22.5357ZM14.5727 9.14079C14.5727 8.26319 14.4034 7.54726 14.0647 6.99298C13.7413 6.43871 13.3179 6.01531 12.7945 5.72278C12.271 5.41485 11.6859 5.21469 11.0393 5.12231C10.3926 5.02994 9.73826 4.98375 9.07621 4.98375H4.7806V13.2978H9.07621C9.73826 13.2978 10.3926 13.2516 11.0393 13.1593C11.6859 13.0669 12.271 12.8744 12.7945 12.5819C13.3179 12.274 13.7413 11.8429 14.0647 11.2886C14.4034 10.7343 14.5727 10.0184 14.5727 9.14079ZM15.612 22.0507C15.612 20.5419 15.0808 19.4256 14.0185 18.702C12.9715 17.9784 11.5012 17.6165 9.60739 17.6165H4.7806V26.508H9.60739C11.5012 26.508 12.9715 26.1462 14.0185 25.4225C15.0808 24.6835 15.612 23.5596 15.612 22.0507Z" fill="#1A56DB"/>
<path d="M38.3603 6.4849H32.5404V0.665039H38.3603V6.4849ZM42.7483 30.8036H28.291V26.508H33.0485V13.5981H28.291V9.27936H37.8291V26.508H42.7483V30.8036Z" fill="#1A56DB"/>
<path d="M72.2633 23.9445C72.0169 26.2078 71.1239 28.0091 69.5843 29.3486C68.0601 30.6727 66.1509 31.3348 63.8568 31.3348C62.5943 31.3348 61.4396 31.1269 60.3926 30.7112C59.3456 30.2955 58.4527 29.7182 57.7136 28.9791C56.9746 28.2401 56.3972 27.3548 55.9815 26.3232C55.5812 25.2763 55.3811 24.1369 55.3811 22.9052V13.5981H50.5081V9.27936H55.3811V0.665039H60.1617V9.27936H69.1917V13.5981H60.1617V22.9052C60.1617 24.2909 60.5004 25.3225 61.1778 25.9999C61.8553 26.6774 62.7483 27.0161 63.8568 27.0161C65.2117 27.0161 66.2202 26.6235 66.8822 25.8382C67.5443 25.053 67.9369 24.1061 68.06 22.9976L72.2633 23.9445Z" fill="#1A56DB"/>
<path d="M97.806 9.27936C97.806 12.1893 96.8976 14.3525 95.0808 15.769C93.2641 17.1854 90.7159 17.8937 87.4365 17.8937H80.6236V30.8036H77.4596V0.665039H87.3903C90.7005 0.665039 93.2641 1.38867 95.0808 2.83594C96.8976 4.26781 97.806 6.41562 97.806 9.27936ZM94.642 9.27936C94.642 7.20084 93.9877 5.69968 92.679 4.77589C91.3703 3.83671 89.6228 3.36712 87.4365 3.36712H80.6236V15.1916H87.4365C89.6228 15.1916 91.3703 14.7297 92.679 13.8059C93.9877 12.8667 94.642 11.3579 94.642 9.27936Z" fill="#233876"/>
<path d="M115.058 4.98375H110.762V0.665039H115.058V4.98375ZM119.353 30.8036H106.443V28.1015H111.316V11.9814H106.443V9.27936H114.503V28.1015H119.353V30.8036Z" fill="#233876"/>
<path d="M150 30.8036H141.109V28.0091H143.002L138.753 21.7736L134.55 28.0091H136.282V30.8036H127.506V28.0091H130.855L136.767 19.8798L131.085 12.12H127.968V9.27936H136.813V12.12H134.827L138.753 17.9861L142.725 12.12H140.554V9.27936H149.492V12.12H146.467L140.785 19.8798L146.697 28.0091H150V30.8036Z" fill="#233876"/>
</svg>
