<svg width="123" height="40" viewBox="0 0 123 40" fill="none" xmlns="http://www.w3.org/2000/svg">
<rect width="8" height="8" fill="#E1EFFE"/>
<rect x="8" y="24" width="8" height="8" fill="#1A56DB"/>
<rect x="8" y="8" width="8" height="8" fill="#A4CAFE"/>
<rect y="32" width="8" height="8" fill="#233876"/>
<rect y="16" width="8" height="8" fill="#3F83F8"/>
<path d="M45.9958 26.6842C45.9958 29.3775 45.0803 31.4051 43.2495 32.7669C41.4186 34.1287 38.8161 34.8096 35.4418 34.8096H26V5.19041H34.9198C36.1605 5.19041 37.3786 5.29633 38.574 5.50817C39.7693 5.70487 40.8361 6.08315 41.7742 6.643C42.7275 7.20285 43.4991 7.98967 44.0893 9.00346C44.6794 10.0021 44.9744 11.3034 44.9744 12.9073C44.9744 14.4053 44.5886 15.7746 43.8169 17.0154C43.0603 18.2561 41.9104 19.1489 40.367 19.6936C42.2584 20.2837 43.6656 21.1084 44.5886 22.1675C45.5267 23.2267 45.9958 24.7323 45.9958 26.6842ZM40.3216 13.5201C40.3216 12.6576 40.1552 11.954 39.8223 11.4093C39.5045 10.8646 39.0884 10.4485 38.574 10.161C38.0595 9.85837 37.4845 9.66166 36.849 9.57087C36.2135 9.48009 35.5704 9.43469 34.9198 9.43469H30.6982V17.6055H34.9198C35.5704 17.6055 36.2135 17.5601 36.849 17.4693C37.4845 17.3785 38.0595 17.1894 38.574 16.9019C39.0884 16.5993 39.5045 16.1756 39.8223 15.6309C40.1552 15.0862 40.3216 14.3826 40.3216 13.5201ZM41.343 26.2075C41.343 24.7247 40.8209 23.6277 39.7769 22.9165C38.748 22.2054 37.3029 21.8498 35.4418 21.8498H30.6982V30.588H35.4418C37.3029 30.588 38.748 30.2324 39.7769 29.5213C40.8209 28.795 41.343 27.6904 41.343 26.2075Z" fill="#1C64F2"/>
<path d="M71.3707 13.6563C71.3707 16.5161 70.4779 18.642 68.6925 20.034C66.907 21.4261 64.4028 22.1221 61.1799 22.1221H54.4843V34.8096H51.3749V5.19041H61.1345C64.3877 5.19041 66.907 5.90158 68.6925 7.3239C70.4779 8.7311 71.3707 10.8419 71.3707 13.6563ZM68.2612 13.6563C68.2612 11.6136 67.6182 10.1383 66.332 9.23042C65.0459 8.30743 63.3285 7.84593 61.1799 7.84593H54.4843V19.4666H61.1799C63.3285 19.4666 65.0459 19.0127 66.332 18.1048C67.6182 17.1818 68.2612 15.699 68.2612 13.6563Z" fill="#233876"/>
<path d="M88.3251 9.43469H84.1035V5.19041H88.3251V9.43469ZM92.5467 34.8096H79.8592V32.1541H84.6482V16.3118H79.8592V13.6563H87.7804V32.1541H92.5467V34.8096Z" fill="#233876"/>
<path d="M122.665 34.8096H113.927V32.0633H115.788L111.612 25.9352L107.481 32.0633H109.183V34.8096H100.559V32.0633H103.85L109.66 24.0741L104.077 16.448H101.013V13.6563H109.705V16.448H107.753L111.612 22.2129L115.516 16.448H113.382V13.6563H122.166V16.448H119.193L113.609 24.0741L119.42 32.0633H122.665V34.8096Z" fill="#233876"/>
</svg>
