<svg width="130" height="40" viewBox="0 0 130 40" fill="none" xmlns="http://www.w3.org/2000/svg">
<path d="M27.1543 29.1621C27.1543 32.7546 25.9333 35.459 23.4912 37.2754C21.0492 39.0918 17.5778 40 13.0771 40H0.483398V0.493164H12.3809C14.0358 0.493164 15.6605 0.63444 17.2549 0.916992C18.8493 1.17936 20.2721 1.68392 21.5234 2.43066C22.7949 3.17741 23.8242 4.22689 24.6113 5.5791C25.3984 6.91113 25.792 8.64681 25.792 10.7861C25.792 12.7842 25.2773 14.6107 24.248 16.2656C23.2389 17.9206 21.7051 19.1113 19.6465 19.8379C22.1693 20.625 24.0462 21.7249 25.2773 23.1377C26.5286 24.5505 27.1543 26.5586 27.1543 29.1621ZM19.5859 11.6035C19.5859 10.4531 19.3639 9.51465 18.9199 8.78809C18.4961 8.06152 17.9411 7.50651 17.2549 7.12305C16.5687 6.7194 15.8018 6.45703 14.9541 6.33594C14.1064 6.21484 13.2487 6.1543 12.3809 6.1543H6.75V17.0527H12.3809C13.2487 17.0527 14.1064 16.9922 14.9541 16.8711C15.8018 16.75 16.5687 16.4977 17.2549 16.1143C17.9411 15.7106 18.4961 15.1455 18.9199 14.4189C19.3639 13.6924 19.5859 12.7539 19.5859 11.6035ZM20.9482 28.5264C20.9482 26.5485 20.252 25.0853 18.8594 24.1367C17.487 23.1882 15.5596 22.7139 13.0771 22.7139H6.75V34.3691H13.0771C15.5596 34.3691 17.487 33.8949 18.8594 32.9463C20.252 31.9775 20.9482 30.5042 20.9482 28.5264Z" fill="#E1EFFE"/>
<path d="M61 11.7852C61 15.5996 59.8092 18.4352 57.4277 20.292C55.0462 22.1488 51.7061 23.0771 47.4072 23.0771H38.4766V40H34.3291V0.493164H47.3467C51.6859 0.493164 55.0462 1.44173 57.4277 3.33887C59.8092 5.21582 61 8.03125 61 11.7852ZM56.8525 11.7852C56.8525 9.06055 55.9948 7.09277 54.2793 5.88184C52.5638 4.65072 50.2731 4.03516 47.4072 4.03516H38.4766V19.5352H47.4072C50.2731 19.5352 52.5638 18.9297 54.2793 17.7188C55.9948 16.4876 56.8525 14.5098 56.8525 11.7852ZM89.2451 40H72.3223V36.458H78.71V4.03516H72.3223V0.493164H89.2451V4.03516H82.8877V36.458H89.2451V40ZM129.418 40H118.217V36.458H120.881L114.675 23.501L108.408 36.458H111.072V40H99.8408V36.458H103.686L112.253 20.1104L103.837 4.03516H100.537V0.493164H111.829V4.03516H108.529L114.675 16.6895L120.639 4.03516H117.46V0.493164H128.752V4.03516H125.331L117.097 20.1104L125.573 36.458H129.418V40Z" fill="white"/>
</svg>
